<?xml version="1.0" encoding="utf-8"?>
<!-- Generator: Adobe Illustrator 26.0.2, SVG Export Plug-In . SVG Version: 6.00 Build 0)  -->
<svg version="1.1" id="Layer_1" xmlns="http://www.w3.org/2000/svg" xmlns:xlink="http://www.w3.org/1999/xlink" x="0px" y="0px"
	 viewBox="0 0 1060 280" style="enable-background:new 0 0 1060 280;" xml:space="preserve">
<style type="text/css">
	.st0{fill:#FFFFFF;}
	.st1{fill:#AF9A71;}
</style>
<g>
	<path class="st0" d="M337.3,16.8l-84.5,248.6h-4.9L174.3,52.1L99.5,265.4H95L11.6,16.8h17.1l69.8,206.7l74-210.2h4.9l73,212.3
		L322,16.8H337.3z"/>
	<path class="st0" d="M382.7,16.8c156.8-22,188.9,72.3,188.9,123.6c0,48.2-37,143.9-188.9,121.5V16.8z M398.8,250.1
		c88.7,11.2,155.4-35.6,155.4-109.6c0-63.2-47.5-124.6-155.4-110.3V250.1z"/>
	<path class="st1" d="M730.8,80c-7.7-16.8-20.9-27.9-38.8-27.9c-20.9,0-34.6,15-34.6,32.5c-0.3,14,8.7,25.5,15.4,33.9l72.3,82.7
		l36-35.6l16.8,17.5l-37.4,36.3l37.4,42.6h-33.2l-22.3-25.8L728,248.7c-22.7,19.2-74.4,29.3-103-2.4c-26.5-29.7-22-69.8,5.6-95
		l21.6-19.9l-4.9-6.6c-8.4-11.5-14.7-22-14.7-41.2c0-31.4,26.9-53.8,58.3-53.8s52.7,19.9,60.1,40.9L730.8,80z M712.3,230.9
		l13.6-12.6l-59-68.4l-20.6,18.9c-16.4,15.4-20.6,41.5-3.1,61.1C662,251.5,696.6,245.5,712.3,230.9z"/>
	<path class="st0" d="M824.4,261.9l111-248.6h4.9l110,248.6h-16.4l-31.8-70.5H872.2l-31.8,70.5H824.4z M878.1,178.1h118L937.5,42.7
		L878.1,178.1z"/>
</g>
</svg>
